<svg xmlns="http://www.w3.org/2000/svg" viewBox="0 0 84.971 98.124"><defs><style>.a{fill:#fff;}.b{fill:red;}</style></defs><path class="a" d="M0,192.76l27.754,16.023V237.8L0,221.772Z" transform="translate(0 -148.178)"/><path class="b" d="M168.231,289.88v16.375l-10.944,6.319-7.947-4.586V278.97Z" transform="translate(-114.8 -214.449)"/><path class="a" d="M84.971,87.311v14.555L73.453,108.52l-5.845,3.372L60.15,116.2V100.839L53.431,96.96,34.54,86.05l-6.786-3.916L0,66.111V52.8l12.6-7.274,5.851-3.381,9.3-5.368v17.5l6.786,3.916L53.431,69.1,60.15,72.98Z" transform="translate(0 -28.273)"/><path class="a" d="M199.771,24.53V52.277L149.34,23.161V4.586L157.285,0Z" transform="translate(-114.8)"/></svg>