<svg xmlns="http://www.w3.org/2000/svg" xmlns:xlink="http://www.w3.org/1999/xlink" viewBox="0 0 1042.689 1042.689"><defs><style>.a{opacity:0.51;fill:url(#a);}.b,.d{fill:#fff;}.c{fill:red;}.d,.e{font-size:61px;font-family:Impact;letter-spacing:0.037em;}.e{fill:#c10303;}.f{filter:url(#b);}</style><linearGradient id="a" x1="0.207" y1="0.063" x2="0.675" y2="0.781" gradientUnits="objectBoundingBox"><stop offset="0" stop-color="red"/><stop offset="1" stop-color="gray" stop-opacity="0"/></linearGradient><filter id="b" x="0" y="0" width="1042.689" height="1042.689" filterUnits="userSpaceOnUse"><feOffset dy="3" input="SourceAlpha"/><feGaussianBlur stdDeviation="45.5" result="c"/><feFlood flood-color="red"/><feComposite operator="in" in2="c"/><feComposite in="SourceGraphic"/></filter></defs><g transform="translate(-438.5 8.5)"><g class="f" transform="matrix(1, 0, 0, 1, 438.5, -8.5)"><circle class="a" cx="384.845" cy="384.845" r="384.845" transform="translate(136.5 133.5)"/></g><g transform="translate(27 54.504)"><g transform="translate(807.639 249.516)"><path class="b" d="M0,192.76l82.629,47.7v86.375L0,279.135Z" transform="translate(0 -60.03)"/><path class="c" d="M205.583,311.45V360.2L173,379.013,149.34,365.359V278.97Z" transform="translate(-46.508 -86.878)"/><path class="b" d="M252.976,187.22v43.332l-34.291,19.81-17.4,10.039L179.078,273.23V227.495l-20-11.547-56.243-32.48-20.2-11.658L0,124.105V84.484L37.52,62.829,54.941,52.762,82.629,36.78V88.871l20.2,11.658,56.243,32.48,20,11.547Z" transform="translate(0 -11.454)"/><path class="b" d="M299.484,73.03v82.608L149.34,68.954v-55.3L172.993,0Z" transform="translate(-46.508)"/></g><g transform="translate(714 586.157)"><text class="d" transform="translate(155 62)"><tspan x="-155.212" y="0" xml:space="preserve">C O M I N G   </tspan></text><text class="e" transform="translate(370.429 62)"><tspan x="-69.002" y="0">SOON</tspan></text></g></g></g></svg>